<?xml version="1.0" encoding="utf-8" ?>
<svg xmlns="http://www.w3.org/2000/svg" xmlns:xlink="http://www.w3.org/1999/xlink" width="1024" height="1024">
	<path d="M512 0Q461.572 0 412.114 9.83794Q362.655 19.6759 316.066 38.9736Q269.477 58.2714 227.548 86.2876Q185.619 114.304 149.962 149.962Q114.304 185.619 86.2876 227.548Q58.2714 269.477 38.9736 316.066Q19.6759 362.655 9.83794 412.114Q0 461.572 0 512Q0 562.428 9.83794 611.886Q19.6759 661.345 38.9736 707.934Q58.2714 754.523 86.2876 796.452Q114.304 838.381 149.962 874.038Q185.619 909.696 227.548 937.713Q269.477 965.728 316.066 985.027Q362.655 1004.32 412.114 1014.16Q461.572 1024 512 1024Q562.428 1024 611.886 1014.16Q661.345 1004.32 707.934 985.027Q754.523 965.728 796.452 937.713Q838.381 909.696 874.038 874.038Q909.696 838.381 937.713 796.452Q965.728 754.523 985.027 707.934Q1004.32 661.345 1014.16 611.886Q1024 562.428 1024 512Q1024 461.572 1014.16 412.114Q1004.32 362.655 985.027 316.066Q965.728 269.477 937.713 227.548Q909.696 185.619 874.038 149.962Q838.381 114.304 796.452 86.2876Q754.523 58.2714 707.934 38.9736Q661.345 19.6759 611.886 9.83794Q562.428 0 512 0Z"/>
	<path fill="white" d="M102.871 285.98L288.476 285.98Q353.26 285.98 390.024 290.085Q426.967 294.19 447.49 302.935Q468.193 311.501 485.504 328.812Q501.03 344.339 508.883 367.897Q516.914 391.276 516.914 418.046Q516.914 444.459 499.067 470.337Q481.221 496.214 449.81 516.381Q486.396 528.16 505.135 550.29Q524.053 572.241 524.053 607.221Q524.053 667.007 484.076 698.774Q475.331 705.734 466.408 710.553Q457.485 715.371 444.635 718.762Q431.785 722.153 419.114 724.116Q406.443 725.901 385.027 726.972Q363.611 728.043 342.909 728.4Q322.385 728.578 288.476 728.578L102.871 728.578L102.871 671.469L159.981 671.469L159.981 343.09L102.871 343.09L102.871 285.98ZM274.199 343.09L274.199 500.14L302.754 500.14Q388.418 500.14 388.418 421.615Q388.418 404.661 386.633 392.882Q384.849 380.925 380.208 370.931Q375.747 360.936 367.716 355.225Q359.685 349.336 347.192 346.302Q334.699 343.09 317.031 343.09L274.199 343.09ZM274.199 557.25L274.199 671.469L317.031 671.469Q360.042 671.469 377.71 658.797Q395.557 646.126 395.557 614.359Q395.557 592.586 386.633 580.451Q377.888 568.136 358.079 562.782Q338.269 557.25 302.754 557.25L274.199 557.25ZM788.184 393.06Q813.169 393.06 831.908 399.842Q850.647 406.624 862.604 418.581Q874.561 430.36 881.879 448.742Q889.374 466.946 892.23 488.005Q895.264 508.885 895.264 535.834L895.264 671.469L930.957 671.469L930.957 728.578L759.629 728.578L759.629 671.469L795.322 671.469L795.322 528.695Q795.322 500.497 790.147 484.792Q785.15 469.087 775.512 463.198Q766.054 457.308 749.635 457.308Q734.465 457.308 718.403 470.337Q702.519 483.365 688.242 506.744L688.242 671.469L723.935 671.469L723.935 728.578L552.607 728.578L552.607 671.469L588.301 671.469L588.301 343.09L552.607 343.09L552.607 285.98L688.242 285.98L688.242 448.921Q694.667 436.963 703.412 427.326Q712.157 417.689 724.114 409.836Q736.071 401.805 752.312 397.522Q768.731 393.06 788.184 393.06Z"/>
</svg>
